<mxfile host="app.diagrams.net" modified="2023-04-17T13:37:00.369Z" agent="Mozilla/5.0 (X11; Ubuntu; Linux x86_64; rv:109.0) Gecko/20100101 Firefox/112.0" etag="20xgAeu_YOuskAhIl4SR" version="21.1.8" type="device">
  <diagram name="Page-1" id="SfRjk4MVTJJJ5wW90QHm">
    <mxGraphModel dx="1276" dy="1594" grid="1" gridSize="10" guides="1" tooltips="1" connect="1" arrows="1" fold="1" page="1" pageScale="1" pageWidth="850" pageHeight="1100" math="0" shadow="0">
      <root>
        <mxCell id="0" />
        <mxCell id="1" parent="0" />
        <mxCell id="_LjGvz2WV9eG9YEf_kkV-1" value="0" style="ellipse;whiteSpace=wrap;html=1;" vertex="1" parent="1">
          <mxGeometry x="120" y="240" width="40" height="40" as="geometry" />
        </mxCell>
        <mxCell id="_LjGvz2WV9eG9YEf_kkV-2" value="1" style="ellipse;whiteSpace=wrap;html=1;" vertex="1" parent="1">
          <mxGeometry x="240" y="240" width="40" height="40" as="geometry" />
        </mxCell>
        <mxCell id="_LjGvz2WV9eG9YEf_kkV-4" value="[a-zA-Z_]" style="endArrow=classic;html=1;rounded=0;exitX=1;exitY=0.5;exitDx=0;exitDy=0;entryX=0;entryY=0.5;entryDx=0;entryDy=0;" edge="1" parent="1" source="_LjGvz2WV9eG9YEf_kkV-1" target="_LjGvz2WV9eG9YEf_kkV-2">
          <mxGeometry width="50" height="50" relative="1" as="geometry">
            <mxPoint x="290" y="370" as="sourcePoint" />
            <mxPoint x="340" y="320" as="targetPoint" />
            <mxPoint as="offset" />
          </mxGeometry>
        </mxCell>
        <mxCell id="_LjGvz2WV9eG9YEf_kkV-5" value="&lt;div&gt;[a-zA-Z_0-9]&lt;/div&gt;" style="endArrow=classic;html=1;rounded=0;exitX=1;exitY=0;exitDx=0;exitDy=0;entryX=0.5;entryY=0;entryDx=0;entryDy=0;" edge="1" parent="1" source="_LjGvz2WV9eG9YEf_kkV-2" target="_LjGvz2WV9eG9YEf_kkV-2">
          <mxGeometry x="-0.3235" y="1" width="50" height="50" relative="1" as="geometry">
            <mxPoint x="300" y="240" as="sourcePoint" />
            <mxPoint x="285.85786437626894" y="245.85786437626905" as="targetPoint" />
            <Array as="points">
              <mxPoint x="280" y="210" />
            </Array>
            <mxPoint as="offset" />
          </mxGeometry>
        </mxCell>
        <mxCell id="_LjGvz2WV9eG9YEf_kkV-11" value="&lt;div&gt;2&lt;/div&gt;&lt;div&gt;ID&lt;br&gt;&lt;/div&gt;" style="ellipse;whiteSpace=wrap;html=1;" vertex="1" parent="1">
          <mxGeometry x="320" y="240" width="40" height="40" as="geometry" />
        </mxCell>
        <mxCell id="_LjGvz2WV9eG9YEf_kkV-13" value="f" style="endArrow=classic;html=1;rounded=0;exitX=1;exitY=0.5;exitDx=0;exitDy=0;entryX=0;entryY=0.5;entryDx=0;entryDy=0;" edge="1" parent="1" source="_LjGvz2WV9eG9YEf_kkV-2" target="_LjGvz2WV9eG9YEf_kkV-11">
          <mxGeometry width="50" height="50" relative="1" as="geometry">
            <mxPoint x="440" y="260" as="sourcePoint" />
            <mxPoint x="550" y="170" as="targetPoint" />
          </mxGeometry>
        </mxCell>
        <mxCell id="_LjGvz2WV9eG9YEf_kkV-20" value="&lt;div&gt;3&lt;/div&gt;&lt;div&gt;KEY&lt;br&gt;&lt;/div&gt;" style="ellipse;whiteSpace=wrap;html=1;" vertex="1" parent="1">
          <mxGeometry x="440" y="240" width="40" height="40" as="geometry" />
        </mxCell>
        <mxCell id="_LjGvz2WV9eG9YEf_kkV-21" value="&lt;div&gt;[keyword]&lt;/div&gt;" style="endArrow=classic;html=1;rounded=0;exitX=1;exitY=0.5;exitDx=0;exitDy=0;entryX=0;entryY=0.5;entryDx=0;entryDy=0;" edge="1" parent="1" source="_LjGvz2WV9eG9YEf_kkV-11" target="_LjGvz2WV9eG9YEf_kkV-20">
          <mxGeometry width="50" height="50" relative="1" as="geometry">
            <mxPoint x="420" y="400" as="sourcePoint" />
            <mxPoint x="470" y="350" as="targetPoint" />
          </mxGeometry>
        </mxCell>
        <mxCell id="_LjGvz2WV9eG9YEf_kkV-22" value="7" style="ellipse;whiteSpace=wrap;html=1;" vertex="1" parent="1">
          <mxGeometry x="80" y="360" width="40" height="40" as="geometry" />
        </mxCell>
        <mxCell id="_LjGvz2WV9eG9YEf_kkV-23" value="&lt;div&gt;[1-9]&lt;/div&gt;" style="endArrow=classic;html=1;rounded=0;exitX=0;exitY=1;exitDx=0;exitDy=0;entryX=1;entryY=0;entryDx=0;entryDy=0;" edge="1" parent="1" source="_LjGvz2WV9eG9YEf_kkV-1" target="_LjGvz2WV9eG9YEf_kkV-22">
          <mxGeometry x="0.0814" y="-2" width="50" height="50" relative="1" as="geometry">
            <mxPoint x="250" y="380" as="sourcePoint" />
            <mxPoint x="110" y="320" as="targetPoint" />
            <mxPoint as="offset" />
          </mxGeometry>
        </mxCell>
        <mxCell id="_LjGvz2WV9eG9YEf_kkV-25" value="4" style="ellipse;whiteSpace=wrap;html=1;" vertex="1" parent="1">
          <mxGeometry x="160" y="320" width="40" height="40" as="geometry" />
        </mxCell>
        <mxCell id="_LjGvz2WV9eG9YEf_kkV-27" value="&lt;div&gt;[0]&lt;/div&gt;" style="endArrow=classic;html=1;rounded=0;exitX=1;exitY=1;exitDx=0;exitDy=0;entryX=0.5;entryY=0;entryDx=0;entryDy=0;" edge="1" parent="1" source="_LjGvz2WV9eG9YEf_kkV-1" target="_LjGvz2WV9eG9YEf_kkV-25">
          <mxGeometry width="50" height="50" relative="1" as="geometry">
            <mxPoint x="142" y="290" as="sourcePoint" />
            <mxPoint x="90" y="342" as="targetPoint" />
          </mxGeometry>
        </mxCell>
        <mxCell id="_LjGvz2WV9eG9YEf_kkV-29" value="5" style="ellipse;whiteSpace=wrap;html=1;" vertex="1" parent="1">
          <mxGeometry x="160" y="400" width="40" height="40" as="geometry" />
        </mxCell>
        <mxCell id="_LjGvz2WV9eG9YEf_kkV-30" value="6" style="ellipse;whiteSpace=wrap;html=1;" vertex="1" parent="1">
          <mxGeometry x="240" y="400" width="40" height="40" as="geometry" />
        </mxCell>
        <mxCell id="_LjGvz2WV9eG9YEf_kkV-31" value="&lt;div&gt;[0-7]&lt;/div&gt;" style="endArrow=classic;html=1;rounded=0;exitX=0.5;exitY=1;exitDx=0;exitDy=0;entryX=0.5;entryY=0;entryDx=0;entryDy=0;" edge="1" parent="1" source="_LjGvz2WV9eG9YEf_kkV-25" target="_LjGvz2WV9eG9YEf_kkV-29">
          <mxGeometry width="50" height="50" relative="1" as="geometry">
            <mxPoint x="200" y="540" as="sourcePoint" />
            <mxPoint x="250" y="490" as="targetPoint" />
          </mxGeometry>
        </mxCell>
        <mxCell id="_LjGvz2WV9eG9YEf_kkV-32" value="[x]" style="endArrow=classic;html=1;rounded=0;exitX=1;exitY=0.5;exitDx=0;exitDy=0;entryX=0.5;entryY=0;entryDx=0;entryDy=0;" edge="1" parent="1" source="_LjGvz2WV9eG9YEf_kkV-25" target="_LjGvz2WV9eG9YEf_kkV-30">
          <mxGeometry width="50" height="50" relative="1" as="geometry">
            <mxPoint x="190" y="370" as="sourcePoint" />
            <mxPoint x="190" y="410" as="targetPoint" />
          </mxGeometry>
        </mxCell>
        <mxCell id="_LjGvz2WV9eG9YEf_kkV-34" value="&lt;div&gt;[0-9]&lt;/div&gt;" style="endArrow=classic;html=1;rounded=0;exitX=0.5;exitY=1;exitDx=0;exitDy=0;entryX=0;entryY=1;entryDx=0;entryDy=0;" edge="1" parent="1" source="_LjGvz2WV9eG9YEf_kkV-22" target="_LjGvz2WV9eG9YEf_kkV-22">
          <mxGeometry width="50" height="50" relative="1" as="geometry">
            <mxPoint x="30" y="280" as="sourcePoint" />
            <mxPoint x="50" y="270" as="targetPoint" />
            <Array as="points">
              <mxPoint x="80" y="440" />
            </Array>
          </mxGeometry>
        </mxCell>
        <mxCell id="_LjGvz2WV9eG9YEf_kkV-35" value="&lt;div&gt;[0-7]&lt;/div&gt;" style="endArrow=classic;html=1;rounded=0;entryX=0;entryY=0;entryDx=0;entryDy=0;exitX=0.5;exitY=0;exitDx=0;exitDy=0;" edge="1" parent="1" source="_LjGvz2WV9eG9YEf_kkV-29" target="_LjGvz2WV9eG9YEf_kkV-29">
          <mxGeometry x="-0.0018" width="50" height="50" relative="1" as="geometry">
            <mxPoint x="180" y="400" as="sourcePoint" />
            <mxPoint x="166" y="406" as="targetPoint" />
            <Array as="points">
              <mxPoint x="140" y="380" />
            </Array>
            <mxPoint as="offset" />
          </mxGeometry>
        </mxCell>
        <mxCell id="_LjGvz2WV9eG9YEf_kkV-36" value="&lt;div&gt;[0-9a-fA-F]&lt;/div&gt;" style="endArrow=classic;html=1;rounded=0;exitX=0.5;exitY=0;exitDx=0;exitDy=0;entryX=1;entryY=0;entryDx=0;entryDy=0;" edge="1" parent="1" source="_LjGvz2WV9eG9YEf_kkV-30" target="_LjGvz2WV9eG9YEf_kkV-30">
          <mxGeometry width="50" height="50" relative="1" as="geometry">
            <mxPoint x="350" y="470" as="sourcePoint" />
            <mxPoint x="400" y="420" as="targetPoint" />
            <Array as="points">
              <mxPoint x="300" y="390" />
            </Array>
          </mxGeometry>
        </mxCell>
        <mxCell id="_LjGvz2WV9eG9YEf_kkV-37" value="&lt;div&gt;8&lt;/div&gt;&lt;div&gt;INT&lt;br&gt;&lt;/div&gt;" style="ellipse;whiteSpace=wrap;html=1;" vertex="1" parent="1">
          <mxGeometry x="160" y="480" width="40" height="40" as="geometry" />
        </mxCell>
        <mxCell id="_LjGvz2WV9eG9YEf_kkV-40" value="f" style="endArrow=classic;html=1;rounded=0;exitX=1;exitY=1;exitDx=0;exitDy=0;entryX=0;entryY=0;entryDx=0;entryDy=0;" edge="1" parent="1" source="_LjGvz2WV9eG9YEf_kkV-22" target="_LjGvz2WV9eG9YEf_kkV-37">
          <mxGeometry width="50" height="50" relative="1" as="geometry">
            <mxPoint x="70" y="500" as="sourcePoint" />
            <mxPoint x="120" y="450" as="targetPoint" />
          </mxGeometry>
        </mxCell>
        <mxCell id="_LjGvz2WV9eG9YEf_kkV-41" value="f" style="endArrow=classic;html=1;rounded=0;exitX=0.5;exitY=1;exitDx=0;exitDy=0;entryX=0.5;entryY=0;entryDx=0;entryDy=0;" edge="1" parent="1" source="_LjGvz2WV9eG9YEf_kkV-29">
          <mxGeometry width="50" height="50" relative="1" as="geometry">
            <mxPoint x="110" y="370" as="sourcePoint" />
            <mxPoint x="180" y="480" as="targetPoint" />
            <mxPoint as="offset" />
          </mxGeometry>
        </mxCell>
        <mxCell id="_LjGvz2WV9eG9YEf_kkV-42" value="f" style="endArrow=classic;html=1;rounded=0;exitX=0.5;exitY=1;exitDx=0;exitDy=0;entryX=1;entryY=0.5;entryDx=0;entryDy=0;" edge="1" parent="1" source="_LjGvz2WV9eG9YEf_kkV-30" target="_LjGvz2WV9eG9YEf_kkV-37">
          <mxGeometry width="50" height="50" relative="1" as="geometry">
            <mxPoint x="120" y="380" as="sourcePoint" />
            <mxPoint x="260" y="480" as="targetPoint" />
          </mxGeometry>
        </mxCell>
        <mxCell id="_LjGvz2WV9eG9YEf_kkV-43" value="f" style="endArrow=classic;html=1;rounded=0;exitX=1;exitY=1;exitDx=0;exitDy=0;entryX=1;entryY=0;entryDx=0;entryDy=0;" edge="1" parent="1" source="_LjGvz2WV9eG9YEf_kkV-25" target="_LjGvz2WV9eG9YEf_kkV-37">
          <mxGeometry width="50" height="50" relative="1" as="geometry">
            <mxPoint x="191" y="359" as="sourcePoint" />
            <mxPoint x="370" y="500" as="targetPoint" />
            <Array as="points">
              <mxPoint x="220" y="420" />
            </Array>
          </mxGeometry>
        </mxCell>
        <mxCell id="_LjGvz2WV9eG9YEf_kkV-56" value="10" style="ellipse;whiteSpace=wrap;html=1;" vertex="1" parent="1">
          <mxGeometry y="240" width="40" height="40" as="geometry" />
        </mxCell>
        <mxCell id="_LjGvz2WV9eG9YEf_kkV-57" value="[.]" style="endArrow=classic;html=1;rounded=0;entryX=1;entryY=0.5;entryDx=0;entryDy=0;exitX=0;exitY=0;exitDx=0;exitDy=0;" edge="1" parent="1" source="_LjGvz2WV9eG9YEf_kkV-25" target="_LjGvz2WV9eG9YEf_kkV-56">
          <mxGeometry x="0.5605" y="-5" width="50" height="50" relative="1" as="geometry">
            <mxPoint x="20" y="480" as="sourcePoint" />
            <mxPoint x="70" y="430" as="targetPoint" />
            <mxPoint as="offset" />
          </mxGeometry>
        </mxCell>
        <mxCell id="_LjGvz2WV9eG9YEf_kkV-59" value="&lt;div&gt;[.]&lt;/div&gt;" style="endArrow=classic;html=1;rounded=0;entryX=0.5;entryY=1;entryDx=0;entryDy=0;exitX=0;exitY=0;exitDx=0;exitDy=0;" edge="1" parent="1" source="_LjGvz2WV9eG9YEf_kkV-22" target="_LjGvz2WV9eG9YEf_kkV-56">
          <mxGeometry width="50" height="50" relative="1" as="geometry">
            <mxPoint y="490" as="sourcePoint" />
            <mxPoint x="50" y="440" as="targetPoint" />
          </mxGeometry>
        </mxCell>
        <mxCell id="_LjGvz2WV9eG9YEf_kkV-62" value="&lt;div&gt;[0-9]&lt;/div&gt;" style="endArrow=classic;html=1;rounded=0;exitX=0.5;exitY=1;exitDx=0;exitDy=0;entryX=1;entryY=1;entryDx=0;entryDy=0;" edge="1" parent="1" source="_LjGvz2WV9eG9YEf_kkV-204" target="_LjGvz2WV9eG9YEf_kkV-204">
          <mxGeometry width="50" height="50" relative="1" as="geometry">
            <mxPoint x="20" y="200" as="sourcePoint" />
            <mxPoint x="70" y="150" as="targetPoint" />
            <Array as="points">
              <mxPoint x="-40" y="300" />
            </Array>
          </mxGeometry>
        </mxCell>
        <mxCell id="_LjGvz2WV9eG9YEf_kkV-102" value="[eE]" style="endArrow=classic;html=1;rounded=0;exitX=0;exitY=0.5;exitDx=0;exitDy=0;entryX=0.5;entryY=1;entryDx=0;entryDy=0;" edge="1" target="_LjGvz2WV9eG9YEf_kkV-93" parent="1" source="_LjGvz2WV9eG9YEf_kkV-22">
          <mxGeometry width="50" height="50" relative="1" as="geometry">
            <mxPoint x="-180" y="240" as="sourcePoint" />
            <mxPoint x="-14" y="240" as="targetPoint" />
            <Array as="points">
              <mxPoint x="-80" y="380" />
            </Array>
          </mxGeometry>
        </mxCell>
        <mxCell id="_LjGvz2WV9eG9YEf_kkV-104" value="[eE]" style="endArrow=classic;html=1;rounded=0;entryX=1;entryY=0.5;entryDx=0;entryDy=0;" edge="1" parent="1" target="_LjGvz2WV9eG9YEf_kkV-93">
          <mxGeometry width="50" height="50" relative="1" as="geometry">
            <mxPoint x="-80" y="260" as="sourcePoint" />
            <mxPoint x="-10" y="340" as="targetPoint" />
          </mxGeometry>
        </mxCell>
        <mxCell id="_LjGvz2WV9eG9YEf_kkV-111" value="21" style="ellipse;whiteSpace=wrap;html=1;" vertex="1" parent="1">
          <mxGeometry x="80" y="80" width="40" height="40" as="geometry" />
        </mxCell>
        <mxCell id="_LjGvz2WV9eG9YEf_kkV-112" value="[\]" style="endArrow=classic;html=1;rounded=0;entryX=0.5;entryY=1;entryDx=0;entryDy=0;exitX=0.5;exitY=0;exitDx=0;exitDy=0;" edge="1" parent="1" source="_LjGvz2WV9eG9YEf_kkV-116" target="_LjGvz2WV9eG9YEf_kkV-111">
          <mxGeometry width="50" height="50" relative="1" as="geometry">
            <mxPoint x="420" y="490" as="sourcePoint" />
            <mxPoint x="510" y="440" as="targetPoint" />
          </mxGeometry>
        </mxCell>
        <mxCell id="_LjGvz2WV9eG9YEf_kkV-113" value="22" style="ellipse;whiteSpace=wrap;html=1;" vertex="1" parent="1">
          <mxGeometry x="80" width="40" height="40" as="geometry" />
        </mxCell>
        <mxCell id="_LjGvz2WV9eG9YEf_kkV-114" value="[abfnrtv&#39;?&quot;\0]" style="endArrow=classic;html=1;rounded=0;exitX=0.5;exitY=0;exitDx=0;exitDy=0;entryX=0.5;entryY=1;entryDx=0;entryDy=0;" edge="1" parent="1" source="_LjGvz2WV9eG9YEf_kkV-111" target="_LjGvz2WV9eG9YEf_kkV-113">
          <mxGeometry width="50" height="50" relative="1" as="geometry">
            <mxPoint x="440" y="420" as="sourcePoint" />
            <mxPoint x="490" y="370" as="targetPoint" />
          </mxGeometry>
        </mxCell>
        <mxCell id="_LjGvz2WV9eG9YEf_kkV-116" value="20" style="ellipse;whiteSpace=wrap;html=1;" vertex="1" parent="1">
          <mxGeometry x="80" y="160" width="40" height="40" as="geometry" />
        </mxCell>
        <mxCell id="_LjGvz2WV9eG9YEf_kkV-117" value="24" style="ellipse;whiteSpace=wrap;html=1;" vertex="1" parent="1">
          <mxGeometry x="160" y="160" width="40" height="40" as="geometry" />
        </mxCell>
        <mxCell id="_LjGvz2WV9eG9YEf_kkV-118" value="[&#39;]" style="endArrow=classic;html=1;rounded=0;exitX=0;exitY=0;exitDx=0;exitDy=0;entryX=0.5;entryY=1;entryDx=0;entryDy=0;" edge="1" parent="1" source="_LjGvz2WV9eG9YEf_kkV-1" target="_LjGvz2WV9eG9YEf_kkV-116">
          <mxGeometry width="50" height="50" relative="1" as="geometry">
            <mxPoint x="160" y="170" as="sourcePoint" />
            <mxPoint x="210" y="120" as="targetPoint" />
          </mxGeometry>
        </mxCell>
        <mxCell id="_LjGvz2WV9eG9YEf_kkV-120" value="[&quot;]" style="endArrow=classic;html=1;rounded=0;exitX=1;exitY=0;exitDx=0;exitDy=0;entryX=0.5;entryY=1;entryDx=0;entryDy=0;" edge="1" parent="1" source="_LjGvz2WV9eG9YEf_kkV-1" target="_LjGvz2WV9eG9YEf_kkV-117">
          <mxGeometry width="50" height="50" relative="1" as="geometry">
            <mxPoint x="190" y="250" as="sourcePoint" />
            <mxPoint x="240" y="200" as="targetPoint" />
          </mxGeometry>
        </mxCell>
        <mxCell id="_LjGvz2WV9eG9YEf_kkV-122" value="&lt;div&gt;23&lt;/div&gt;&lt;div&gt;CHAR&lt;br&gt;&lt;/div&gt;" style="ellipse;whiteSpace=wrap;html=1;" vertex="1" parent="1">
          <mxGeometry x="80" y="-80" width="40" height="40" as="geometry" />
        </mxCell>
        <mxCell id="_LjGvz2WV9eG9YEf_kkV-123" value="[&#39;]" style="endArrow=classic;html=1;rounded=0;entryX=0.5;entryY=1;entryDx=0;entryDy=0;exitX=0.5;exitY=0;exitDx=0;exitDy=0;" edge="1" parent="1" source="_LjGvz2WV9eG9YEf_kkV-113" target="_LjGvz2WV9eG9YEf_kkV-122">
          <mxGeometry width="50" height="50" relative="1" as="geometry">
            <mxPoint x="20" y="50" as="sourcePoint" />
            <mxPoint x="70" as="targetPoint" />
          </mxGeometry>
        </mxCell>
        <mxCell id="_LjGvz2WV9eG9YEf_kkV-124" value="25" style="ellipse;whiteSpace=wrap;html=1;" vertex="1" parent="1">
          <mxGeometry x="160" y="80" width="40" height="40" as="geometry" />
        </mxCell>
        <mxCell id="_LjGvz2WV9eG9YEf_kkV-126" value="[abfnrtv&#39;?&quot;\0]" style="endArrow=classic;html=1;rounded=0;exitX=0;exitY=1;exitDx=0;exitDy=0;entryX=0;entryY=0;entryDx=0;entryDy=0;" edge="1" parent="1" source="_LjGvz2WV9eG9YEf_kkV-124" target="_LjGvz2WV9eG9YEf_kkV-117">
          <mxGeometry width="50" height="50" relative="1" as="geometry">
            <mxPoint x="520" y="420" as="sourcePoint" />
            <mxPoint x="570" y="370" as="targetPoint" />
            <Array as="points">
              <mxPoint x="140" y="140" />
            </Array>
          </mxGeometry>
        </mxCell>
        <mxCell id="_LjGvz2WV9eG9YEf_kkV-127" value="&lt;div&gt;26&lt;/div&gt;&lt;div&gt;STR&lt;br&gt;&lt;/div&gt;" style="ellipse;whiteSpace=wrap;html=1;" vertex="1" parent="1">
          <mxGeometry x="160" width="40" height="40" as="geometry" />
        </mxCell>
        <mxCell id="_LjGvz2WV9eG9YEf_kkV-129" value="[\]" style="endArrow=classic;html=1;rounded=0;entryX=0.5;entryY=1;entryDx=0;entryDy=0;exitX=0.5;exitY=0;exitDx=0;exitDy=0;" edge="1" parent="1" source="_LjGvz2WV9eG9YEf_kkV-117" target="_LjGvz2WV9eG9YEf_kkV-124">
          <mxGeometry width="50" height="50" relative="1" as="geometry">
            <mxPoint x="210" y="200" as="sourcePoint" />
            <mxPoint x="260" y="150" as="targetPoint" />
          </mxGeometry>
        </mxCell>
        <mxCell id="_LjGvz2WV9eG9YEf_kkV-131" value="[^&#39;\]" style="endArrow=classic;html=1;rounded=0;entryX=0;entryY=1;entryDx=0;entryDy=0;exitX=0;exitY=0;exitDx=0;exitDy=0;" edge="1" parent="1" source="_LjGvz2WV9eG9YEf_kkV-116" target="_LjGvz2WV9eG9YEf_kkV-113">
          <mxGeometry x="0.0004" width="50" height="50" relative="1" as="geometry">
            <mxPoint x="-10" y="130" as="sourcePoint" />
            <mxPoint x="20" y="40" as="targetPoint" />
            <Array as="points">
              <mxPoint x="40" y="80" />
            </Array>
            <mxPoint as="offset" />
          </mxGeometry>
        </mxCell>
        <mxCell id="_LjGvz2WV9eG9YEf_kkV-132" value="&lt;div&gt;[^&quot;\]&lt;/div&gt;" style="endArrow=classic;html=1;rounded=0;exitX=1;exitY=1;exitDx=0;exitDy=0;entryX=1;entryY=0.5;entryDx=0;entryDy=0;" edge="1" parent="1" source="_LjGvz2WV9eG9YEf_kkV-117" target="_LjGvz2WV9eG9YEf_kkV-117">
          <mxGeometry width="50" height="50" relative="1" as="geometry">
            <mxPoint x="230" y="180" as="sourcePoint" />
            <mxPoint x="280" y="130" as="targetPoint" />
            <Array as="points">
              <mxPoint x="220" y="200" />
            </Array>
          </mxGeometry>
        </mxCell>
        <mxCell id="_LjGvz2WV9eG9YEf_kkV-133" value="&lt;div&gt;[&quot;]&lt;/div&gt;" style="endArrow=classic;html=1;rounded=0;exitX=1;exitY=0;exitDx=0;exitDy=0;entryX=1;entryY=1;entryDx=0;entryDy=0;" edge="1" parent="1" source="_LjGvz2WV9eG9YEf_kkV-117" target="_LjGvz2WV9eG9YEf_kkV-127">
          <mxGeometry width="50" height="50" relative="1" as="geometry">
            <mxPoint x="270" y="120" as="sourcePoint" />
            <mxPoint x="320" y="70" as="targetPoint" />
            <Array as="points">
              <mxPoint x="240" y="80" />
            </Array>
          </mxGeometry>
        </mxCell>
        <mxCell id="_LjGvz2WV9eG9YEf_kkV-166" value="[&amp;gt;]" style="edgeStyle=orthogonalEdgeStyle;rounded=0;orthogonalLoop=1;jettySize=auto;html=1;entryX=1;entryY=0.5;entryDx=0;entryDy=0;" edge="1" parent="1" source="_LjGvz2WV9eG9YEf_kkV-135" target="_LjGvz2WV9eG9YEf_kkV-158">
          <mxGeometry relative="1" as="geometry" />
        </mxCell>
        <mxCell id="_LjGvz2WV9eG9YEf_kkV-135" value="0" style="ellipse;whiteSpace=wrap;html=1;" vertex="1" parent="1">
          <mxGeometry x="-280" y="520" width="40" height="40" as="geometry" />
        </mxCell>
        <mxCell id="_LjGvz2WV9eG9YEf_kkV-136" value="30" style="ellipse;whiteSpace=wrap;html=1;" vertex="1" parent="1">
          <mxGeometry x="-280" y="440" width="40" height="40" as="geometry" />
        </mxCell>
        <mxCell id="_LjGvz2WV9eG9YEf_kkV-137" value="[&amp;amp;]" style="endArrow=classic;html=1;rounded=0;entryX=0.5;entryY=1;entryDx=0;entryDy=0;exitX=0.5;exitY=0;exitDx=0;exitDy=0;" edge="1" parent="1" source="_LjGvz2WV9eG9YEf_kkV-135" target="_LjGvz2WV9eG9YEf_kkV-136">
          <mxGeometry width="50" height="50" relative="1" as="geometry">
            <mxPoint x="-380" y="570" as="sourcePoint" />
            <mxPoint x="-330" y="520" as="targetPoint" />
          </mxGeometry>
        </mxCell>
        <mxCell id="_LjGvz2WV9eG9YEf_kkV-138" value="&lt;div&gt;31&lt;/div&gt;&lt;div&gt;AND&lt;br&gt;&lt;/div&gt;" style="ellipse;whiteSpace=wrap;html=1;" vertex="1" parent="1">
          <mxGeometry x="-280" y="360" width="40" height="40" as="geometry" />
        </mxCell>
        <mxCell id="_LjGvz2WV9eG9YEf_kkV-139" value="[&amp;amp;]" style="endArrow=classic;html=1;rounded=0;entryX=0.5;entryY=1;entryDx=0;entryDy=0;exitX=0.5;exitY=0;exitDx=0;exitDy=0;" edge="1" parent="1">
          <mxGeometry width="50" height="50" relative="1" as="geometry">
            <mxPoint x="-260.26" y="440" as="sourcePoint" />
            <mxPoint x="-260.26" y="400" as="targetPoint" />
          </mxGeometry>
        </mxCell>
        <mxCell id="_LjGvz2WV9eG9YEf_kkV-141" value="32" style="ellipse;whiteSpace=wrap;html=1;" vertex="1" parent="1">
          <mxGeometry x="-200" y="440" width="40" height="40" as="geometry" />
        </mxCell>
        <mxCell id="_LjGvz2WV9eG9YEf_kkV-142" value="[|]" style="endArrow=classic;html=1;rounded=0;entryX=0;entryY=1;entryDx=0;entryDy=0;exitX=1;exitY=0;exitDx=0;exitDy=0;" edge="1" parent="1" source="_LjGvz2WV9eG9YEf_kkV-135" target="_LjGvz2WV9eG9YEf_kkV-141">
          <mxGeometry width="50" height="50" relative="1" as="geometry">
            <mxPoint x="-190" y="580" as="sourcePoint" />
            <mxPoint x="-140" y="530" as="targetPoint" />
          </mxGeometry>
        </mxCell>
        <mxCell id="_LjGvz2WV9eG9YEf_kkV-143" value="&lt;div&gt;33&lt;/div&gt;&lt;div&gt;OR&lt;br&gt;&lt;/div&gt;" style="ellipse;whiteSpace=wrap;html=1;" vertex="1" parent="1">
          <mxGeometry x="-200" y="360" width="40" height="40" as="geometry" />
        </mxCell>
        <mxCell id="_LjGvz2WV9eG9YEf_kkV-144" value="[|]" style="endArrow=classic;html=1;rounded=0;entryX=0.5;entryY=1;entryDx=0;entryDy=0;exitX=0.5;exitY=0;exitDx=0;exitDy=0;" edge="1" parent="1">
          <mxGeometry width="50" height="50" relative="1" as="geometry">
            <mxPoint x="-180.26" y="440" as="sourcePoint" />
            <mxPoint x="-180.26" y="400" as="targetPoint" />
          </mxGeometry>
        </mxCell>
        <mxCell id="_LjGvz2WV9eG9YEf_kkV-145" value="&lt;div&gt;34&lt;/div&gt;" style="ellipse;whiteSpace=wrap;html=1;" vertex="1" parent="1">
          <mxGeometry x="-200" y="520" width="40" height="40" as="geometry" />
        </mxCell>
        <mxCell id="_LjGvz2WV9eG9YEf_kkV-146" value="[=]" style="endArrow=classic;html=1;rounded=0;exitX=1;exitY=0.5;exitDx=0;exitDy=0;entryX=0;entryY=0.5;entryDx=0;entryDy=0;" edge="1" parent="1" source="_LjGvz2WV9eG9YEf_kkV-135" target="_LjGvz2WV9eG9YEf_kkV-145">
          <mxGeometry width="50" height="50" relative="1" as="geometry">
            <mxPoint x="-240" y="660" as="sourcePoint" />
            <mxPoint x="-190" y="610" as="targetPoint" />
          </mxGeometry>
        </mxCell>
        <mxCell id="_LjGvz2WV9eG9YEf_kkV-147" value="&lt;div&gt;35&lt;/div&gt;&lt;div&gt;ASGN&lt;br&gt;&lt;/div&gt;" style="ellipse;whiteSpace=wrap;html=1;" vertex="1" parent="1">
          <mxGeometry x="-120" y="440" width="40" height="40" as="geometry" />
        </mxCell>
        <mxCell id="_LjGvz2WV9eG9YEf_kkV-148" value="&lt;div&gt;36&lt;/div&gt;&lt;div&gt;EQ&lt;br&gt;&lt;/div&gt;" style="ellipse;whiteSpace=wrap;html=1;" vertex="1" parent="1">
          <mxGeometry x="-120" y="520" width="40" height="40" as="geometry" />
        </mxCell>
        <mxCell id="_LjGvz2WV9eG9YEf_kkV-149" value="[=]" style="endArrow=classic;html=1;rounded=0;exitX=1;exitY=0;exitDx=0;exitDy=0;entryX=0;entryY=1;entryDx=0;entryDy=0;" edge="1" parent="1" source="_LjGvz2WV9eG9YEf_kkV-145" target="_LjGvz2WV9eG9YEf_kkV-147">
          <mxGeometry width="50" height="50" relative="1" as="geometry">
            <mxPoint x="-90" y="670" as="sourcePoint" />
            <mxPoint x="-40" y="620" as="targetPoint" />
          </mxGeometry>
        </mxCell>
        <mxCell id="_LjGvz2WV9eG9YEf_kkV-150" value="f" style="endArrow=classic;html=1;rounded=0;exitX=1;exitY=0.5;exitDx=0;exitDy=0;entryX=0;entryY=0.5;entryDx=0;entryDy=0;" edge="1" parent="1" source="_LjGvz2WV9eG9YEf_kkV-145" target="_LjGvz2WV9eG9YEf_kkV-148">
          <mxGeometry width="50" height="50" relative="1" as="geometry">
            <mxPoint x="-140" y="620" as="sourcePoint" />
            <mxPoint x="-90" y="570" as="targetPoint" />
            <mxPoint as="offset" />
          </mxGeometry>
        </mxCell>
        <mxCell id="_LjGvz2WV9eG9YEf_kkV-151" value="37" style="ellipse;whiteSpace=wrap;html=1;" vertex="1" parent="1">
          <mxGeometry x="-200" y="600" width="40" height="40" as="geometry" />
        </mxCell>
        <mxCell id="_LjGvz2WV9eG9YEf_kkV-152" value="[!]" style="endArrow=classic;html=1;rounded=0;exitX=1;exitY=1;exitDx=0;exitDy=0;entryX=0;entryY=0;entryDx=0;entryDy=0;" edge="1" parent="1" source="_LjGvz2WV9eG9YEf_kkV-135" target="_LjGvz2WV9eG9YEf_kkV-151">
          <mxGeometry width="50" height="50" relative="1" as="geometry">
            <mxPoint x="-290" y="700" as="sourcePoint" />
            <mxPoint x="-240" y="650" as="targetPoint" />
          </mxGeometry>
        </mxCell>
        <mxCell id="_LjGvz2WV9eG9YEf_kkV-153" value="&lt;div&gt;38&lt;/div&gt;&lt;div&gt;NEQ&lt;br&gt;&lt;/div&gt;" style="ellipse;whiteSpace=wrap;html=1;" vertex="1" parent="1">
          <mxGeometry x="-120" y="600" width="40" height="40" as="geometry" />
        </mxCell>
        <mxCell id="_LjGvz2WV9eG9YEf_kkV-154" value="&lt;div&gt;39&lt;/div&gt;&lt;div&gt;NOT&lt;br&gt;&lt;/div&gt;" style="ellipse;whiteSpace=wrap;html=1;" vertex="1" parent="1">
          <mxGeometry x="-200" y="680" width="40" height="40" as="geometry" />
        </mxCell>
        <mxCell id="_LjGvz2WV9eG9YEf_kkV-155" value="[=]" style="endArrow=classic;html=1;rounded=0;exitX=1;exitY=0.5;exitDx=0;exitDy=0;entryX=0;entryY=0.5;entryDx=0;entryDy=0;" edge="1" parent="1" source="_LjGvz2WV9eG9YEf_kkV-151" target="_LjGvz2WV9eG9YEf_kkV-153">
          <mxGeometry width="50" height="50" relative="1" as="geometry">
            <mxPoint x="-130" y="720" as="sourcePoint" />
            <mxPoint x="-80" y="670" as="targetPoint" />
          </mxGeometry>
        </mxCell>
        <mxCell id="_LjGvz2WV9eG9YEf_kkV-156" value="f" style="endArrow=classic;html=1;rounded=0;exitX=0.5;exitY=1;exitDx=0;exitDy=0;entryX=0.5;entryY=0;entryDx=0;entryDy=0;" edge="1" parent="1" source="_LjGvz2WV9eG9YEf_kkV-151" target="_LjGvz2WV9eG9YEf_kkV-154">
          <mxGeometry width="50" height="50" relative="1" as="geometry">
            <mxPoint x="-300" y="710" as="sourcePoint" />
            <mxPoint x="-250" y="660" as="targetPoint" />
          </mxGeometry>
        </mxCell>
        <mxCell id="_LjGvz2WV9eG9YEf_kkV-164" value="f" style="edgeStyle=orthogonalEdgeStyle;rounded=0;orthogonalLoop=1;jettySize=auto;html=1;entryX=0.5;entryY=0;entryDx=0;entryDy=0;" edge="1" parent="1" source="_LjGvz2WV9eG9YEf_kkV-157" target="_LjGvz2WV9eG9YEf_kkV-159">
          <mxGeometry relative="1" as="geometry" />
        </mxCell>
        <mxCell id="_LjGvz2WV9eG9YEf_kkV-157" value="40" style="ellipse;whiteSpace=wrap;html=1;" vertex="1" parent="1">
          <mxGeometry x="-280" y="600" width="40" height="40" as="geometry" />
        </mxCell>
        <mxCell id="_LjGvz2WV9eG9YEf_kkV-167" value="f" style="edgeStyle=orthogonalEdgeStyle;rounded=0;orthogonalLoop=1;jettySize=auto;html=1;" edge="1" parent="1" source="_LjGvz2WV9eG9YEf_kkV-158" target="_LjGvz2WV9eG9YEf_kkV-161">
          <mxGeometry relative="1" as="geometry" />
        </mxCell>
        <mxCell id="_LjGvz2WV9eG9YEf_kkV-158" value="43" style="ellipse;whiteSpace=wrap;html=1;" vertex="1" parent="1">
          <mxGeometry x="-360" y="520" width="40" height="40" as="geometry" />
        </mxCell>
        <mxCell id="_LjGvz2WV9eG9YEf_kkV-159" value="&lt;div&gt;41&lt;/div&gt;&lt;div&gt;LS&lt;/div&gt;" style="ellipse;whiteSpace=wrap;html=1;" vertex="1" parent="1">
          <mxGeometry x="-280" y="680" width="40" height="40" as="geometry" />
        </mxCell>
        <mxCell id="_LjGvz2WV9eG9YEf_kkV-160" value="&lt;div&gt;42&lt;/div&gt;&lt;div&gt;LSEQ&lt;br&gt;&lt;/div&gt;" style="ellipse;whiteSpace=wrap;html=1;" vertex="1" parent="1">
          <mxGeometry x="-360" y="680" width="40" height="40" as="geometry" />
        </mxCell>
        <mxCell id="_LjGvz2WV9eG9YEf_kkV-161" value="&lt;div&gt;44&lt;/div&gt;&lt;div&gt;GR&lt;br&gt;&lt;/div&gt;" style="ellipse;whiteSpace=wrap;html=1;" vertex="1" parent="1">
          <mxGeometry x="-440" y="520" width="40" height="40" as="geometry" />
        </mxCell>
        <mxCell id="_LjGvz2WV9eG9YEf_kkV-162" value="&lt;div&gt;45&lt;/div&gt;&lt;div&gt;GREQ&lt;br&gt;&lt;/div&gt;" style="ellipse;whiteSpace=wrap;html=1;" vertex="1" parent="1">
          <mxGeometry x="-440" y="440" width="40" height="40" as="geometry" />
        </mxCell>
        <mxCell id="_LjGvz2WV9eG9YEf_kkV-163" value="[&amp;lt;]" style="endArrow=classic;html=1;rounded=0;exitX=0.5;exitY=1;exitDx=0;exitDy=0;entryX=0.5;entryY=0;entryDx=0;entryDy=0;" edge="1" parent="1" source="_LjGvz2WV9eG9YEf_kkV-135" target="_LjGvz2WV9eG9YEf_kkV-157">
          <mxGeometry width="50" height="50" relative="1" as="geometry">
            <mxPoint x="-340" y="650" as="sourcePoint" />
            <mxPoint x="-290" y="600" as="targetPoint" />
          </mxGeometry>
        </mxCell>
        <mxCell id="_LjGvz2WV9eG9YEf_kkV-168" value="[=]" style="endArrow=classic;html=1;rounded=0;exitX=0;exitY=1;exitDx=0;exitDy=0;entryX=1;entryY=0;entryDx=0;entryDy=0;" edge="1" parent="1" source="_LjGvz2WV9eG9YEf_kkV-157" target="_LjGvz2WV9eG9YEf_kkV-160">
          <mxGeometry width="50" height="50" relative="1" as="geometry">
            <mxPoint x="-360" y="650" as="sourcePoint" />
            <mxPoint x="-310" y="600" as="targetPoint" />
          </mxGeometry>
        </mxCell>
        <mxCell id="_LjGvz2WV9eG9YEf_kkV-169" value="[=]" style="endArrow=classic;html=1;rounded=0;exitX=0;exitY=0;exitDx=0;exitDy=0;entryX=1;entryY=1;entryDx=0;entryDy=0;" edge="1" parent="1" source="_LjGvz2WV9eG9YEf_kkV-158" target="_LjGvz2WV9eG9YEf_kkV-162">
          <mxGeometry width="50" height="50" relative="1" as="geometry">
            <mxPoint x="-380" y="510" as="sourcePoint" />
            <mxPoint x="-330" y="460" as="targetPoint" />
          </mxGeometry>
        </mxCell>
        <mxCell id="_LjGvz2WV9eG9YEf_kkV-93" value="12" style="ellipse;whiteSpace=wrap;html=1;" vertex="1" parent="1">
          <mxGeometry x="-160" y="240" width="40" height="40" as="geometry" />
        </mxCell>
        <mxCell id="_LjGvz2WV9eG9YEf_kkV-108" value="&lt;div&gt;15&lt;/div&gt;&lt;div&gt;REAL&lt;br&gt;&lt;/div&gt;" style="ellipse;whiteSpace=wrap;html=1;" vertex="1" parent="1">
          <mxGeometry x="-80" y="160" width="40" height="40" as="geometry" />
        </mxCell>
        <mxCell id="_LjGvz2WV9eG9YEf_kkV-110" value="f" style="endArrow=classic;html=1;rounded=0;entryX=0;entryY=0;entryDx=0;entryDy=0;exitX=1;exitY=1;exitDx=0;exitDy=0;" edge="1" parent="1" source="_LjGvz2WV9eG9YEf_kkV-96" target="_LjGvz2WV9eG9YEf_kkV-108">
          <mxGeometry x="-0.3588" y="-2" width="50" height="50" relative="1" as="geometry">
            <mxPoint x="-100" y="350" as="sourcePoint" />
            <mxPoint x="50" y="430" as="targetPoint" />
            <mxPoint as="offset" />
          </mxGeometry>
        </mxCell>
        <mxCell id="_LjGvz2WV9eG9YEf_kkV-94" value="13" style="ellipse;whiteSpace=wrap;html=1;" vertex="1" parent="1">
          <mxGeometry x="-160" y="160" width="40" height="40" as="geometry" />
        </mxCell>
        <mxCell id="_LjGvz2WV9eG9YEf_kkV-97" value="&lt;div&gt;[0-9]&lt;/div&gt;" style="endArrow=classic;html=1;rounded=0;exitX=0.5;exitY=0;exitDx=0;exitDy=0;entryX=0.5;entryY=1;entryDx=0;entryDy=0;" edge="1" source="_LjGvz2WV9eG9YEf_kkV-94" target="_LjGvz2WV9eG9YEf_kkV-96" parent="1">
          <mxGeometry width="50" height="50" relative="1" as="geometry">
            <mxPoint x="-20" y="250" as="sourcePoint" />
            <mxPoint x="30" y="200" as="targetPoint" />
          </mxGeometry>
        </mxCell>
        <mxCell id="_LjGvz2WV9eG9YEf_kkV-95" value="[-+]" style="endArrow=classic;html=1;rounded=0;exitX=0.5;exitY=0;exitDx=0;exitDy=0;entryX=0.5;entryY=1;entryDx=0;entryDy=0;" edge="1" source="_LjGvz2WV9eG9YEf_kkV-93" target="_LjGvz2WV9eG9YEf_kkV-94" parent="1">
          <mxGeometry width="50" height="50" relative="1" as="geometry">
            <mxPoint x="-140" y="230" as="sourcePoint" />
            <mxPoint x="-90" y="180" as="targetPoint" />
          </mxGeometry>
        </mxCell>
        <mxCell id="_LjGvz2WV9eG9YEf_kkV-96" value="14" style="ellipse;whiteSpace=wrap;html=1;" vertex="1" parent="1">
          <mxGeometry x="-160" y="80" width="40" height="40" as="geometry" />
        </mxCell>
        <mxCell id="_LjGvz2WV9eG9YEf_kkV-98" value="&lt;div&gt;[0-9]&lt;/div&gt;" style="endArrow=classic;html=1;rounded=0;exitX=1;exitY=0;exitDx=0;exitDy=0;entryX=0.5;entryY=0;entryDx=0;entryDy=0;" edge="1" source="_LjGvz2WV9eG9YEf_kkV-96" target="_LjGvz2WV9eG9YEf_kkV-96" parent="1">
          <mxGeometry width="50" height="50" relative="1" as="geometry">
            <mxPoint x="50" y="200" as="sourcePoint" />
            <mxPoint x="100" y="150" as="targetPoint" />
            <Array as="points">
              <mxPoint x="-110" y="60" />
            </Array>
          </mxGeometry>
        </mxCell>
        <mxCell id="_LjGvz2WV9eG9YEf_kkV-134" value="&lt;div&gt;[0-9]&lt;/div&gt;" style="endArrow=classic;html=1;rounded=0;exitX=0;exitY=0.5;exitDx=0;exitDy=0;entryX=0;entryY=0.5;entryDx=0;entryDy=0;" edge="1" parent="1" source="_LjGvz2WV9eG9YEf_kkV-93" target="_LjGvz2WV9eG9YEf_kkV-96">
          <mxGeometry width="50" height="50" relative="1" as="geometry">
            <mxPoint x="-80" y="220" as="sourcePoint" />
            <mxPoint x="-30" y="170" as="targetPoint" />
            <Array as="points">
              <mxPoint x="-200" y="180" />
            </Array>
          </mxGeometry>
        </mxCell>
        <mxCell id="_LjGvz2WV9eG9YEf_kkV-203" value="[eE]" style="endArrow=classic;html=1;rounded=0;entryX=1;entryY=1;entryDx=0;entryDy=0;exitX=0;exitY=0.5;exitDx=0;exitDy=0;" edge="1" parent="1" source="_LjGvz2WV9eG9YEf_kkV-25" target="_LjGvz2WV9eG9YEf_kkV-93">
          <mxGeometry width="50" height="50" relative="1" as="geometry">
            <mxPoint x="-80" y="420" as="sourcePoint" />
            <mxPoint x="-30" y="370" as="targetPoint" />
            <Array as="points">
              <mxPoint x="-40" y="340" />
            </Array>
          </mxGeometry>
        </mxCell>
        <mxCell id="_LjGvz2WV9eG9YEf_kkV-204" value="11" style="ellipse;whiteSpace=wrap;html=1;" vertex="1" parent="1">
          <mxGeometry x="-80" y="240" width="40" height="40" as="geometry" />
        </mxCell>
        <mxCell id="_LjGvz2WV9eG9YEf_kkV-205" value="[0-9]" style="endArrow=classic;html=1;rounded=0;exitX=0;exitY=0.5;exitDx=0;exitDy=0;entryX=1;entryY=0.5;entryDx=0;entryDy=0;" edge="1" parent="1" source="_LjGvz2WV9eG9YEf_kkV-56" target="_LjGvz2WV9eG9YEf_kkV-204">
          <mxGeometry width="50" height="50" relative="1" as="geometry">
            <mxPoint x="-20" y="210" as="sourcePoint" />
            <mxPoint x="30" y="160" as="targetPoint" />
          </mxGeometry>
        </mxCell>
        <mxCell id="_LjGvz2WV9eG9YEf_kkV-206" value="f" style="endArrow=classic;html=1;rounded=0;entryX=0.5;entryY=1;entryDx=0;entryDy=0;exitX=0.5;exitY=0;exitDx=0;exitDy=0;" edge="1" parent="1" source="_LjGvz2WV9eG9YEf_kkV-204" target="_LjGvz2WV9eG9YEf_kkV-108">
          <mxGeometry width="50" height="50" relative="1" as="geometry">
            <mxPoint x="-300" y="330" as="sourcePoint" />
            <mxPoint x="-250" y="280" as="targetPoint" />
          </mxGeometry>
        </mxCell>
        <mxCell id="_LjGvz2WV9eG9YEf_kkV-170" value="0" style="ellipse;whiteSpace=wrap;html=1;" vertex="1" parent="1">
          <mxGeometry x="-760" width="40" height="40" as="geometry" />
        </mxCell>
        <mxCell id="_LjGvz2WV9eG9YEf_kkV-171" value="50" style="ellipse;whiteSpace=wrap;html=1;" vertex="1" parent="1">
          <mxGeometry x="-760" y="-80" width="40" height="40" as="geometry" />
        </mxCell>
        <mxCell id="_LjGvz2WV9eG9YEf_kkV-172" value="[\n\r\t]" style="endArrow=classic;html=1;rounded=0;entryX=0.5;entryY=1;entryDx=0;entryDy=0;exitX=0.5;exitY=0;exitDx=0;exitDy=0;" edge="1" parent="1" source="_LjGvz2WV9eG9YEf_kkV-170" target="_LjGvz2WV9eG9YEf_kkV-171">
          <mxGeometry width="50" height="50" relative="1" as="geometry">
            <mxPoint x="-780" y="170" as="sourcePoint" />
            <mxPoint x="-730" y="120" as="targetPoint" />
          </mxGeometry>
        </mxCell>
        <mxCell id="_LjGvz2WV9eG9YEf_kkV-173" value="52" style="ellipse;whiteSpace=wrap;html=1;" vertex="1" parent="1">
          <mxGeometry x="-680" width="40" height="40" as="geometry" />
        </mxCell>
        <mxCell id="_LjGvz2WV9eG9YEf_kkV-182" value="f" style="edgeStyle=orthogonalEdgeStyle;rounded=0;orthogonalLoop=1;jettySize=auto;html=1;" edge="1" parent="1" source="_LjGvz2WV9eG9YEf_kkV-174">
          <mxGeometry relative="1" as="geometry">
            <mxPoint x="-520.0000000000005" y="20" as="targetPoint" />
          </mxGeometry>
        </mxCell>
        <mxCell id="_LjGvz2WV9eG9YEf_kkV-174" value="53" style="ellipse;whiteSpace=wrap;html=1;" vertex="1" parent="1">
          <mxGeometry x="-600" width="40" height="40" as="geometry" />
        </mxCell>
        <mxCell id="_LjGvz2WV9eG9YEf_kkV-175" value="[/]" style="endArrow=classic;html=1;rounded=0;exitX=1;exitY=0.5;exitDx=0;exitDy=0;entryX=0;entryY=0.5;entryDx=0;entryDy=0;" edge="1" parent="1" source="_LjGvz2WV9eG9YEf_kkV-170" target="_LjGvz2WV9eG9YEf_kkV-173">
          <mxGeometry width="50" height="50" relative="1" as="geometry">
            <mxPoint x="-770" y="140" as="sourcePoint" />
            <mxPoint x="-720" y="90" as="targetPoint" />
          </mxGeometry>
        </mxCell>
        <mxCell id="_LjGvz2WV9eG9YEf_kkV-176" value="[/]" style="endArrow=classic;html=1;rounded=0;exitX=1;exitY=0.5;exitDx=0;exitDy=0;entryX=0;entryY=0.5;entryDx=0;entryDy=0;" edge="1" parent="1">
          <mxGeometry width="50" height="50" relative="1" as="geometry">
            <mxPoint x="-640" y="19.700000000000045" as="sourcePoint" />
            <mxPoint x="-600" y="19.700000000000045" as="targetPoint" />
          </mxGeometry>
        </mxCell>
        <mxCell id="_LjGvz2WV9eG9YEf_kkV-178" value="[^\n\r\0]" style="endArrow=classic;html=1;rounded=0;entryX=0.5;entryY=0;entryDx=0;entryDy=0;exitX=1;exitY=0;exitDx=0;exitDy=0;" edge="1" parent="1" source="_LjGvz2WV9eG9YEf_kkV-174" target="_LjGvz2WV9eG9YEf_kkV-174">
          <mxGeometry x="0.2556" width="50" height="50" relative="1" as="geometry">
            <mxPoint x="-640" y="180" as="sourcePoint" />
            <mxPoint x="-480.00000000000045" y="20" as="targetPoint" />
            <Array as="points">
              <mxPoint x="-540" y="-20" />
            </Array>
            <mxPoint as="offset" />
          </mxGeometry>
        </mxCell>
        <mxCell id="_LjGvz2WV9eG9YEf_kkV-180" value="&lt;div&gt;51&lt;/div&gt;&lt;div&gt;SPC&lt;br&gt;&lt;/div&gt;" style="ellipse;whiteSpace=wrap;html=1;" vertex="1" parent="1">
          <mxGeometry x="-760" y="-160" width="40" height="40" as="geometry" />
        </mxCell>
        <mxCell id="_LjGvz2WV9eG9YEf_kkV-181" value="f" style="endArrow=classic;html=1;rounded=0;entryX=0.5;entryY=1;entryDx=0;entryDy=0;exitX=0.5;exitY=0;exitDx=0;exitDy=0;" edge="1" parent="1">
          <mxGeometry width="50" height="50" relative="1" as="geometry">
            <mxPoint x="-740.26" y="-80" as="sourcePoint" />
            <mxPoint x="-740.26" y="-120" as="targetPoint" />
          </mxGeometry>
        </mxCell>
        <mxCell id="_LjGvz2WV9eG9YEf_kkV-183" value="&lt;div&gt;54&lt;/div&gt;&lt;div&gt;LCMT&lt;br&gt;&lt;/div&gt;" style="ellipse;whiteSpace=wrap;html=1;" vertex="1" parent="1">
          <mxGeometry x="-520" width="40" height="40" as="geometry" />
        </mxCell>
        <mxCell id="_LjGvz2WV9eG9YEf_kkV-185" value="55" style="ellipse;whiteSpace=wrap;html=1;" vertex="1" parent="1">
          <mxGeometry x="-680" y="80" width="40" height="40" as="geometry" />
        </mxCell>
        <mxCell id="_LjGvz2WV9eG9YEf_kkV-187" value="[*]" style="endArrow=classic;html=1;rounded=0;exitX=0.5;exitY=1;exitDx=0;exitDy=0;entryX=0.5;entryY=0;entryDx=0;entryDy=0;" edge="1" parent="1" source="_LjGvz2WV9eG9YEf_kkV-173" target="_LjGvz2WV9eG9YEf_kkV-185">
          <mxGeometry width="50" height="50" relative="1" as="geometry">
            <mxPoint x="-740.26" y="120" as="sourcePoint" />
            <mxPoint x="-740.26" y="160" as="targetPoint" />
          </mxGeometry>
        </mxCell>
        <mxCell id="_LjGvz2WV9eG9YEf_kkV-189" value="[^*]" style="endArrow=classic;html=1;rounded=0;exitX=0;exitY=0;exitDx=0;exitDy=0;entryX=0;entryY=0.5;entryDx=0;entryDy=0;" edge="1" parent="1" source="_LjGvz2WV9eG9YEf_kkV-185" target="_LjGvz2WV9eG9YEf_kkV-185">
          <mxGeometry width="50" height="50" relative="1" as="geometry">
            <mxPoint x="-660.26" y="120" as="sourcePoint" />
            <mxPoint x="-660.26" y="160" as="targetPoint" />
            <Array as="points">
              <mxPoint x="-700" y="70" />
            </Array>
          </mxGeometry>
        </mxCell>
        <mxCell id="_LjGvz2WV9eG9YEf_kkV-190" value="56" style="ellipse;whiteSpace=wrap;html=1;" vertex="1" parent="1">
          <mxGeometry x="-680" y="160" width="40" height="40" as="geometry" />
        </mxCell>
        <mxCell id="_LjGvz2WV9eG9YEf_kkV-191" value="[*]" style="endArrow=classic;html=1;rounded=0;exitX=0;exitY=1;exitDx=0;exitDy=0;entryX=0;entryY=0;entryDx=0;entryDy=0;" edge="1" parent="1" source="_LjGvz2WV9eG9YEf_kkV-185" target="_LjGvz2WV9eG9YEf_kkV-190">
          <mxGeometry width="50" height="50" relative="1" as="geometry">
            <mxPoint x="-590" y="190" as="sourcePoint" />
            <mxPoint x="-540" y="140" as="targetPoint" />
          </mxGeometry>
        </mxCell>
        <mxCell id="_LjGvz2WV9eG9YEf_kkV-192" value="[/]" style="endArrow=classic;html=1;rounded=0;exitX=0.5;exitY=1;exitDx=0;exitDy=0;entryX=0.5;entryY=0;entryDx=0;entryDy=0;" edge="1" parent="1" source="_LjGvz2WV9eG9YEf_kkV-190" target="_LjGvz2WV9eG9YEf_kkV-194">
          <mxGeometry width="50" height="50" relative="1" as="geometry">
            <mxPoint x="-550" y="160" as="sourcePoint" />
            <mxPoint x="-520" y="100" as="targetPoint" />
          </mxGeometry>
        </mxCell>
        <mxCell id="_LjGvz2WV9eG9YEf_kkV-193" value="[^/]" style="endArrow=classic;html=1;rounded=0;exitX=0.5;exitY=0;exitDx=0;exitDy=0;entryX=0.5;entryY=1;entryDx=0;entryDy=0;" edge="1" parent="1" source="_LjGvz2WV9eG9YEf_kkV-190" target="_LjGvz2WV9eG9YEf_kkV-185">
          <mxGeometry x="0.092" y="1" width="50" height="50" relative="1" as="geometry">
            <mxPoint x="-550" y="110" as="sourcePoint" />
            <mxPoint x="-510" y="110" as="targetPoint" />
            <mxPoint as="offset" />
          </mxGeometry>
        </mxCell>
        <mxCell id="_LjGvz2WV9eG9YEf_kkV-194" value="&lt;div&gt;57&lt;/div&gt;&lt;div&gt;CMT&lt;br&gt;&lt;/div&gt;" style="ellipse;whiteSpace=wrap;html=1;" vertex="1" parent="1">
          <mxGeometry x="-680" y="240" width="40" height="40" as="geometry" />
        </mxCell>
        <mxCell id="_LjGvz2WV9eG9YEf_kkV-212" value="&lt;div&gt;58&lt;/div&gt;&lt;div&gt;DIV&lt;br&gt;&lt;/div&gt;" style="ellipse;whiteSpace=wrap;html=1;" vertex="1" parent="1">
          <mxGeometry x="-680" y="-80" width="40" height="40" as="geometry" />
        </mxCell>
        <mxCell id="_LjGvz2WV9eG9YEf_kkV-213" value="f" style="endArrow=classic;html=1;rounded=0;entryX=0.5;entryY=1;entryDx=0;entryDy=0;exitX=0.5;exitY=0;exitDx=0;exitDy=0;" edge="1" parent="1" source="_LjGvz2WV9eG9YEf_kkV-173" target="_LjGvz2WV9eG9YEf_kkV-212">
          <mxGeometry width="50" height="50" relative="1" as="geometry">
            <mxPoint x="-490" y="170" as="sourcePoint" />
            <mxPoint x="-440" y="120" as="targetPoint" />
          </mxGeometry>
        </mxCell>
      </root>
    </mxGraphModel>
  </diagram>
</mxfile>
